<svg xmlns="http://www.w3.org/2000/svg" xmlns:xlink="http://www.w3.org/1999/xlink" width="224" height="65" viewBox="0 0 224 65">
  <defs>
    <clipPath id="clip-Artboard_3">
      <rect width="224" height="65"/>
    </clipPath>
  </defs>
  <g id="Artboard_3" data-name="Artboard – 3" clip-path="url(#clip-Artboard_3)">
    <g id="Group_7453" data-name="Group 7453" transform="translate(267.244 10.649)">
      <g id="Group_7451" data-name="Group 7451" transform="translate(-207.744 9.094)">
        <path id="Path_8053" data-name="Path 8053" d="M-195.52,39.894a5.751,5.751,0,0,1-2.851,1.8,9.911,9.911,0,0,1-3.186.45c-4.569,0-7.127-2.023-7.127-9.342V18.246c0-7.32,4.192-9.341,8.8-9.341,5.617,0,8.761,2.425,8.845,8.713l-.043,3.368h-6.959V16.54c0-1.3-.377-2.514-1.844-2.514s-1.845,1.212-1.845,2.514V34.5c0,1.3.335,2.515,1.845,2.515,1.467,0,1.844-1.214,1.844-2.515V30.238h-2.64V25.387h9.6V41.511h-4.065Z" transform="translate(208.684 -8.905)" fill="#1a1818"/>
        <path id="Path_8054" data-name="Path 8054" d="M-190,41.5V9.524h6.959V36.65h7.545V41.5Z" transform="translate(208.989 -8.895)" fill="#1a1818"/>
        <path id="Path_8055" data-name="Path 8055" d="M-157.428,32.8c0,7.32-4.192,9.342-8.8,9.342s-8.8-2.023-8.8-9.342V18.246c0-7.32,4.192-9.341,8.8-9.341s8.8,2.021,8.8,9.341ZM-168.075,34.5c0,1.3.377,2.515,1.845,2.515s1.844-1.214,1.844-2.515V16.54c0-1.3-.377-2.514-1.844-2.514s-1.845,1.212-1.845,2.514Z" transform="translate(209.234 -8.905)" fill="#1a1818"/>
        <path id="Path_8056" data-name="Path 8056" d="M-156.271,9.524h7.044c5.91,0,10.563.089,10.563,7.769,0,3.548-.964,6.737-4.947,7.142v.314c4.443,0,4.947,3.5,4.947,7.635,0,8.8-3.186,9.118-10.563,9.118h-7.044Zm6.96,12.979c2.179-.135,3.688.629,3.688-4.176,0-3.144-.252-4.446-3.688-4.222Zm0,14.417c3.731.359,3.688-1.931,3.688-5.254,0-4.536-.755-4.581-3.688-4.581Z" transform="translate(209.54 -8.895)" fill="#1a1818"/>
        <path id="Path_8057" data-name="Path 8057" d="M-123.331,9.524l3.857,31.977h-6.917l-.8-7.86h-3.773l-1.132,7.86h-5.868l5.073-31.977Zm-4.359,19.267-1.216-14.237h-.083l-1.217,14.237Z" transform="translate(209.84 -8.895)" fill="#1a1818"/>
        <path id="Path_8058" data-name="Path 8058" d="M-118.826,41.5V9.524h6.959V36.65h7.545V41.5Z" transform="translate(210.152 -8.895)" fill="#1a1818"/>
        <path id="Path_8059" data-name="Path 8059" d="M-85.269,9.524-81.413,41.5h-6.916l-.8-7.86H-92.9l-1.133,7.86H-99.9l5.072-31.977Zm-4.36,19.267-1.216-14.237h-.083l-1.216,14.237Z" transform="translate(210.461 -8.895)" fill="#1a1818"/>
        <path id="Path_8060" data-name="Path 8060" d="M-67.518,39.894a5.742,5.742,0,0,1-2.851,1.8,9.9,9.9,0,0,1-3.185.45c-4.57,0-7.127-2.023-7.127-9.342V18.246c0-7.32,4.192-9.341,8.8-9.341,5.617,0,8.761,2.425,8.845,8.713l-.042,3.368h-6.959V16.54c0-1.3-.377-2.514-1.845-2.514s-1.845,1.212-1.845,2.514V34.5c0,1.3.336,2.515,1.845,2.515,1.468,0,1.845-1.214,1.845-2.515V30.238h-2.64V25.387h9.6V41.511h-4.066Z" transform="translate(210.775 -8.905)" fill="#1a1818"/>
        <path id="Path_8061" data-name="Path 8061" d="M-62,41.5V9.524h14.42v4.85h-7.461v7.007h7.21v4.85h-7.21V36.65h7.461V41.5Z" transform="translate(211.081 -8.895)" fill="#1a1818"/>
      </g>
      <g id="Group_7452" data-name="Group 7452" transform="translate(-266.245 -2.65)">
        <path id="Path_8062" data-name="Path 8062" d="M-240.079-2.65l-26.166,44.978h41.71l-5.471-9.237h-19.967l15.135-26.646Z" transform="translate(266.245 2.65)" fill="#962128"/>
        <path id="Path_8063" data-name="Path 8063" d="M-232.661,10.774l18.19,31.336h-10.445l-8.1-13.714h-9.877Z" transform="translate(266.626 2.869)" fill="#e2001d"/>
        <path id="Path_8064" data-name="Path 8064" d="M-230.55,32.517h-2.416l7.887,9.237Z" transform="translate(266.788 3.224)" fill="#7d1b21"/>
      </g>
    </g>
  </g>
</svg>
