<svg xmlns="http://www.w3.org/2000/svg" viewBox="0 0 64 64">
  <rect width="64" height="64" rx="12" fill="#7C3AED"/>
  <circle cx="32" cy="32" r="8" fill="#fff"/>
  <circle cx="32" cy="14" r="3.5" fill="#fff"/>
  <circle cx="32" cy="50" r="3.5" fill="#fff"/>
  <circle cx="14" cy="32" r="3.5" fill="#fff"/>
  <circle cx="50" cy="32" r="3.5" fill="#fff"/>
  <circle cx="19" cy="19" r="3" fill="#fff"/>
  <circle cx="45" cy="19" r="3" fill="#fff"/>
  <circle cx="19" cy="45" r="3" fill="#fff"/>
  <circle cx="45" cy="45" r="3" fill="#fff"/>
  <line x1="32" y1="17.5" x2="32" y2="24" stroke="#fff" stroke-width="2"/>
  <line x1="32" y1="40" x2="32" y2="46.5" stroke="#fff" stroke-width="2"/>
  <line x1="17.5" y1="32" x2="24" y2="32" stroke="#fff" stroke-width="2"/>
  <line x1="40" y1="32" x2="46.5" y2="32" stroke="#fff" stroke-width="2"/>
  <line x1="21.2" y1="21.2" x2="26.4" y2="26.4" stroke="#fff" stroke-width="2"/>
  <line x1="37.6" y1="37.6" x2="42.8" y2="42.8" stroke="#fff" stroke-width="2"/>
  <line x1="42.8" y1="21.2" x2="37.6" y2="26.4" stroke="#fff" stroke-width="2"/>
  <line x1="26.4" y1="37.6" x2="21.2" y2="42.8" stroke="#fff" stroke-width="2"/>
</svg>
